<?xml version="1.0" encoding="UTF-8" standalone="no"?>
<svg
   xmlns:dc="http://purl.org/dc/elements/1.1/"
   xmlns:cc="http://creativecommons.org/ns#"
   xmlns:rdf="http://www.w3.org/1999/02/22-rdf-syntax-ns#"
   xmlns:svg="http://www.w3.org/2000/svg"
   xmlns="http://www.w3.org/2000/svg"
   xmlns:sodipodi="http://sodipodi.sourceforge.net/DTD/sodipodi-0.dtd"
   xmlns:inkscape="http://www.inkscape.org/namespaces/inkscape"
   version="1.1"
   id="svg4288"
   viewBox="0 0 1000 1000"
   height="1000"
   width="1000"
   inkscape:version="0.92.4 (5da689c313, 2019-01-14)"
   sodipodi:docname="P.svg">
  <sodipodi:namedview
     pagecolor="#ffffff"
     bordercolor="#666666"
     borderopacity="1"
     objecttolerance="10"
     gridtolerance="10"
     guidetolerance="10"
     inkscape:pageopacity="0"
     inkscape:pageshadow="2"
     inkscape:window-width="1920"
     inkscape:window-height="1017"
     id="namedview9"
     showgrid="false"
     inkscape:zoom="0.44851477"
     inkscape:cx="235.6107"
     inkscape:cy="544.57703"
     inkscape:window-x="-4"
     inkscape:window-y="-4"
     inkscape:window-maximized="1"
     inkscape:current-layer="layer1"
     units="px" />
  <defs
     id="defs4290" />
  <metadata
     id="metadata4293">
    <rdf:RDF>
      <cc:Work
         rdf:about="">
        <dc:format>image/svg+xml</dc:format>
        <dc:type
           rdf:resource="http://purl.org/dc/dcmitype/StillImage" />
        <dc:title />
      </cc:Work>
    </rdf:RDF>
  </metadata>
  <g
     inkscape:groupmode="layer"
     id="layer1"
     inkscape:label="Layer 1"
     style="display:inline"
     transform="translate(0,-52.362161)">
    <path
       style="fill:#000000;fill-opacity:1"
       d="m 895.87305,88.672708 c -62.27452,4.11372 -65.70854,81.121692 -63.07836,128.617902 -0.69794,97.53565 -0.12135,195.07382 -0.17946,292.61061 -250.87464,4.00899 -501.89529,2.85678 -752.600804,14.20033 -58.641278,12.34933 -49.102528,116.52978 11.581571,115.94016 178.202663,6.16695 356.622343,-1.72514 534.916653,-1.49498 68.63594,-0.81566 137.2715,-1.66325 205.90727,-2.49316 -0.41171,84.61517 1.12885,169.22491 0.9336,253.83984 -251.1207,4.01357 -502.38755,2.85662 -753.339094,14.20814 -59.079309,12.50456 -48.715544,117.26885 12.384075,116.12315 176.397409,5.7536 353.002579,-2.0424 529.496369,-1.5199 99.52263,-1.03 199.04551,-2.296 298.54768,-4.6106 59.40607,-28.43694 31.8348,-103.72402 38.37456,-155.26452 -0.28012,-240.48102 3.38224,-481.08257 -6.47127,-721.43635 -4.61112,-26.54012 -29.16887,-48.805728 -56.47279,-48.720622 z"
       id="path4286"
       inkscape:connector-curvature="0" />
  </g>
  <g
     style="display:inline"
     id="layer3"
     transform="translate(0,-52.362161)" />
</svg>
