<?xml version="1.0" encoding="UTF-8" standalone="no"?>
<svg
   xmlns:dc="http://purl.org/dc/elements/1.1/"
   xmlns:cc="http://creativecommons.org/ns#"
   xmlns:rdf="http://www.w3.org/1999/02/22-rdf-syntax-ns#"
   xmlns:svg="http://www.w3.org/2000/svg"
   xmlns="http://www.w3.org/2000/svg"
   xmlns:sodipodi="http://sodipodi.sourceforge.net/DTD/sodipodi-0.dtd"
   xmlns:inkscape="http://www.inkscape.org/namespaces/inkscape"
   version="1.1"
   id="svg4288"
   viewBox="0 0 1000 1000"
   height="1000"
   width="1000"
   inkscape:version="0.92.4 (5da689c313, 2019-01-14)"
   sodipodi:docname="SH.svg"
   inkscape:export-filename="D:\МИ\LINGUA\АЛФАВИТ-АЗБУКА\MЭ\1.8\source\symbol_svg\Letter\Compressed Sound\SH.svg.png"
   inkscape:export-xdpi="17.280001"
   inkscape:export-ydpi="17.280001">
  <sodipodi:namedview
     pagecolor="#ffffff"
     bordercolor="#666666"
     borderopacity="1"
     objecttolerance="10"
     gridtolerance="10"
     guidetolerance="10"
     inkscape:pageopacity="0"
     inkscape:pageshadow="2"
     inkscape:window-width="1359"
     inkscape:window-height="1009"
     id="namedview9"
     showgrid="false"
     inkscape:zoom="0.44851478"
     inkscape:cx="261.0143"
     inkscape:cy="758.10078"
     inkscape:window-x="362"
     inkscape:window-y="0"
     inkscape:window-maximized="0"
     inkscape:current-layer="g10"
     units="px" />
  <defs
     id="defs4290" />
  <metadata
     id="metadata4293">
    <rdf:RDF>
      <cc:Work
         rdf:about="">
        <dc:format>image/svg+xml</dc:format>
        <dc:type
           rdf:resource="http://purl.org/dc/dcmitype/StillImage" />
        <dc:title />
      </cc:Work>
    </rdf:RDF>
  </metadata>
  <g
     inkscape:groupmode="layer"
     id="layer2"
     inkscape:label="Layer 2">
    <g
       id="g10">
      <path
         style="fill:#000000"
         d="M 367.84111,768.89411 C 259.824,746.70863 154.79609,700.85624 71.921986,627.29102 43.027843,602.22876 26.56844,557.73155 49.092004,523.21568 c 19.380444,-28.67467 63.155806,-55.56584 95.234776,-30.15281 54.57898,35.67118 106.81646,76.60587 169.30596,98.01996 54.0539,19.17598 108.36766,42.90496 167.03559,40.08474 52.20623,2.08421 105.23901,-2.94513 153.43122,-24.49892 68.10636,-20.52849 132.23203,-53.285 187.67424,-97.96068 27.86912,-22.79995 69.20413,-37.83237 99.55487,-10.46542 23.23423,17.76503 43.34053,46.66584 39.20457,77.0719 -24.5598,43.53935 -69.30651,70.99636 -109.16974,99.35827 -129.85905,86.78206 -292.63433,118.99049 -446.7331,100.66336 -12.33765,-1.68679 -24.61723,-3.81131 -36.78928,-6.44197 z"
         id="path4148"
         inkscape:connector-curvature="0" />
      <path
         style="fill:#000000;stroke:#000000;stroke-width:1.13415039px;stroke-linecap:butt;stroke-linejoin:miter;stroke-opacity:1"
         d="m 301.69062,439.55554 c -3.55179,-94.91869 55.6189,-183.81058 134.68802,-205.16113 97.03556,-33.50874 220.94717,18.39224 252.47696,137.8975 10.44138,40.4176 23.10875,110.49752 -26.21587,121.29644 -55.36039,4.03582 -59.34531,-74.00973 -81.84116,-115.45425 -20.87704,-53.82556 -80.54592,-80.78784 -125.27577,-49.72923 -41.52529,27.10964 -57.1577,83.10477 -69.6609,132.95098 -16.94368,48.23622 -84.78985,27.24508 -84.17128,-21.80031 z"
         id="path21"
         inkscape:connector-curvature="0" />
    </g>
  </g>
  <g
     style="display:inline"
     id="layer3"
     transform="translate(0,-52.362161)" />
</svg>
