<?xml version="1.0" encoding="UTF-8" standalone="no"?>
<svg
   xmlns:dc="http://purl.org/dc/elements/1.1/"
   xmlns:cc="http://creativecommons.org/ns#"
   xmlns:rdf="http://www.w3.org/1999/02/22-rdf-syntax-ns#"
   xmlns:svg="http://www.w3.org/2000/svg"
   xmlns="http://www.w3.org/2000/svg"
   xmlns:sodipodi="http://sodipodi.sourceforge.net/DTD/sodipodi-0.dtd"
   xmlns:inkscape="http://www.inkscape.org/namespaces/inkscape"
   version="1.1"
   id="svg4288"
   viewBox="0 0 1000 1000"
   height="1000"
   width="1000"
   inkscape:version="0.92.4 (5da689c313, 2019-01-14)"
   sodipodi:docname="TH.svg">
  <sodipodi:namedview
     pagecolor="#ffffff"
     bordercolor="#666666"
     borderopacity="1"
     objecttolerance="10"
     gridtolerance="10"
     guidetolerance="10"
     inkscape:pageopacity="0"
     inkscape:pageshadow="2"
     inkscape:window-width="1920"
     inkscape:window-height="1017"
     id="namedview9"
     showgrid="false"
     inkscape:zoom="0.63429568"
     inkscape:cx="692.64039"
     inkscape:cy="572.76492"
     inkscape:window-x="-4"
     inkscape:window-y="-4"
     inkscape:window-maximized="1"
     inkscape:current-layer="g10"
     units="px" />
  <defs
     id="defs4290" />
  <metadata
     id="metadata4293">
    <rdf:RDF>
      <cc:Work
         rdf:about="">
        <dc:format>image/svg+xml</dc:format>
        <dc:type
           rdf:resource="http://purl.org/dc/dcmitype/StillImage" />
        <dc:title />
      </cc:Work>
    </rdf:RDF>
  </metadata>
  <g
     inkscape:groupmode="layer"
     id="layer2"
     inkscape:label="Layer 2">
    <g
       id="g10">
      <path
         style="fill:#000000"
         d="m 117.75,482.41211 c -50.311115,1.35814 -96.181952,57.10465 -73.617089,106.03796 27.792555,55.09378 86.462989,83.96855 137.362589,114.23674 74.03395,39.94001 156.21442,64.2246 239.52794,74.62374 3.168,36.1167 -9.29117,76.96167 13.41174,108.67026 27.10459,41.41538 93.37903,47.61271 124.66102,7.4339 28.33195,-31.27779 17.01176,-74.31187 19.18896,-112.41614 19.64273,-19.07417 70.79708,-12.76766 100.6827,-27.26863 100.15049,-28.08193 193.79155,-82.04963 266.85654,-156.16087 26.33027,-21.61641 13.86164,-58.55323 -4.90684,-80.5297 -21.658,-29.12756 -65.04109,-47.07882 -96.8456,-22.2841 -46.96895,29.56307 -89.6408,66.75108 -142.19349,86.80899 -47.04027,17.48332 -93.78654,38.33977 -143.53065,46.58939 -67.21363,6.20261 -137.67185,6.70436 -200.51446,-21.48473 C 287.79541,585.9432 223.23616,550.49114 165.30894,506.35046 150.15345,497.60496 135.73783,484.23055 117.75,482.41211 Z"
         id="path4148"
         inkscape:connector-curvature="0" />
    </g>
  </g>
  <g
     style="display:inline"
     id="layer3"
     transform="translate(0,-52.362161)" />
</svg>
