<?xml version="1.0" encoding="UTF-8" standalone="no"?>
<svg
   xmlns:dc="http://purl.org/dc/elements/1.1/"
   xmlns:cc="http://creativecommons.org/ns#"
   xmlns:rdf="http://www.w3.org/1999/02/22-rdf-syntax-ns#"
   xmlns:svg="http://www.w3.org/2000/svg"
   xmlns="http://www.w3.org/2000/svg"
   xmlns:sodipodi="http://sodipodi.sourceforge.net/DTD/sodipodi-0.dtd"
   xmlns:inkscape="http://www.inkscape.org/namespaces/inkscape"
   version="1.1"
   id="svg4288"
   viewBox="0 0 999.99999 999.99999"
   height="1000"
   width="1000"
   inkscape:version="0.92.4 (5da689c313, 2019-01-14)"
   sodipodi:docname="U.svg">
  <sodipodi:namedview
     pagecolor="#ffffff"
     bordercolor="#666666"
     borderopacity="1"
     objecttolerance="10"
     gridtolerance="10"
     guidetolerance="10"
     inkscape:pageopacity="0"
     inkscape:pageshadow="2"
     inkscape:window-width="1280"
     inkscape:window-height="975"
     id="namedview9"
     showgrid="false"
     inkscape:zoom="0.44851477"
     inkscape:cx="457.69592"
     inkscape:cy="535.40819"
     inkscape:window-x="-4"
     inkscape:window-y="-4"
     inkscape:window-maximized="1"
     inkscape:current-layer="g4878"
     units="px" />
  <defs
     id="defs4290" />
  <metadata
     id="metadata4293">
    <rdf:RDF>
      <cc:Work
         rdf:about="">
        <dc:format>image/svg+xml</dc:format>
        <dc:type
           rdf:resource="http://purl.org/dc/dcmitype/StillImage" />
        <dc:title></dc:title>
      </cc:Work>
    </rdf:RDF>
  </metadata>
  <g
     style="display:inline"
     id="layer3"
     transform="translate(0,-52.362271)">
    <g
       style="fill:#000000;fill-opacity:1"
       id="g4878">
      <path
         style="display:inline;fill:#000000;fill-opacity:1"
         d="M 470,82.362286 A 470,470 0 0 0 0,552.36226 470,470 0 0 0 470,1022.3623 470,470 0 0 0 940,552.36226 470,470 0 0 0 470,82.362286 Z m 2.5,129.941404 a 345,345 0 0 1 345,344.99997 345,345 0 0 1 -345,345 345,345 0 0 1 -345,-345 345,345 0 0 1 345,-344.99997 z m 1.3675,213.26172 a 123.33333,123.33333 0 0 0 -123.33,123.33005 123.33333,123.33333 0 0 0 123.33,123.33985 A 123.33333,123.33333 0 0 0 597.207,548.89546 123.33333,123.33333 0 0 0 473.8675,425.56541 Z"
         id="path4255"
         inkscape:connector-curvature="0" />
    </g>
  </g>
</svg>
