<?xml version="1.0" encoding="UTF-8" standalone="no"?>
<svg
   xmlns:dc="http://purl.org/dc/elements/1.1/"
   xmlns:cc="http://creativecommons.org/ns#"
   xmlns:rdf="http://www.w3.org/1999/02/22-rdf-syntax-ns#"
   xmlns:svg="http://www.w3.org/2000/svg"
   xmlns="http://www.w3.org/2000/svg"
   xmlns:sodipodi="http://sodipodi.sourceforge.net/DTD/sodipodi-0.dtd"
   xmlns:inkscape="http://www.inkscape.org/namespaces/inkscape"
   version="1.1"
   id="svg4288"
   viewBox="0 0 1000 1000"
   height="1000"
   width="1000"
   inkscape:version="0.92.4 (5da689c313, 2019-01-14)"
   sodipodi:docname="T.svg">
  <sodipodi:namedview
     pagecolor="#ffffff"
     bordercolor="#666666"
     borderopacity="1"
     objecttolerance="10"
     gridtolerance="10"
     guidetolerance="10"
     inkscape:pageopacity="0"
     inkscape:pageshadow="2"
     inkscape:window-width="1920"
     inkscape:window-height="1017"
     id="namedview9"
     showgrid="false"
     inkscape:zoom="0.44851477"
     inkscape:cx="504.90092"
     inkscape:cy="531.13405"
     inkscape:window-x="-4"
     inkscape:window-y="-4"
     inkscape:window-maximized="1"
     inkscape:current-layer="layer1"
     units="px" />
  <defs
     id="defs4290" />
  <metadata
     id="metadata4293">
    <rdf:RDF>
      <cc:Work
         rdf:about="">
        <dc:format>image/svg+xml</dc:format>
        <dc:type
           rdf:resource="http://purl.org/dc/dcmitype/StillImage" />
        <dc:title></dc:title>
      </cc:Work>
    </rdf:RDF>
  </metadata>
  <g
     inkscape:groupmode="layer"
     id="layer1"
     inkscape:label="Layer 1"
     style="display:inline"
     transform="translate(0,-52.362161)">
    <path
       style="fill:#000000;fill-opacity:1"
       d="m 895.87305,88.672708 c -68.31886,8.824366 -65.93208,93.413322 -63.07737,145.756042 -0.29753,209.46485 -2.05622,419.08525 0.84291,628.42311 1.59112,48.82745 -62.40704,19.75243 -93.77043,28.33117 -219.97403,2.62984 -440.04716,2.97665 -659.854488,12.91936 -60.414071,12.84594 -46.879081,119.07941 14.639167,116.97001 247.995161,3.0244 496.126011,-3.2031 744.163361,-5.2979 38.36468,-5.2336 92.52291,14.1872 111.77953,-31.52453 18.3235,-48.99855 3.12664,-102.19843 7.69981,-153.16239 1.44186,-231.23476 2.97927,-462.57657 -5.94984,-693.69417 -4.59474,-26.52789 -29.18734,-48.814618 -56.47265,-48.720702 z M 507.55078,426.03013 c -69.49046,-2.98634 -132.84015,58.22318 -128.43935,128.4416 3.68064,66.46637 64.13878,127.82644 133.01342,118.56931 72.11559,-2.50898 128.57842,-76.66958 112.24082,-146.93385 -9.8673,-55.17973 -60.18242,-99.93601 -116.81489,-100.07706 z"
       id="path4286"
       inkscape:connector-curvature="0" />
  </g>
  <g
     style="display:inline"
     id="layer3"
     transform="translate(0,-52.362161)" />
</svg>
