<?xml version="1.0" encoding="UTF-8" standalone="no"?>
<svg
   xmlns:dc="http://purl.org/dc/elements/1.1/"
   xmlns:cc="http://creativecommons.org/ns#"
   xmlns:rdf="http://www.w3.org/1999/02/22-rdf-syntax-ns#"
   xmlns:svg="http://www.w3.org/2000/svg"
   xmlns="http://www.w3.org/2000/svg"
   xmlns:sodipodi="http://sodipodi.sourceforge.net/DTD/sodipodi-0.dtd"
   xmlns:inkscape="http://www.inkscape.org/namespaces/inkscape"
   version="1.1"
   id="svg4288"
   viewBox="0 0 1000 1000"
   height="1000"
   width="1000"
   inkscape:version="0.92.4 (5da689c313, 2019-01-14)"
   sodipodi:docname="SH.svg">
  <sodipodi:namedview
     pagecolor="#ffffff"
     bordercolor="#666666"
     borderopacity="1"
     objecttolerance="10"
     gridtolerance="10"
     guidetolerance="10"
     inkscape:pageopacity="0"
     inkscape:pageshadow="2"
     inkscape:window-width="1920"
     inkscape:window-height="1017"
     id="namedview9"
     showgrid="false"
     inkscape:zoom="0.63429568"
     inkscape:cx="424.28903"
     inkscape:cy="525.7447"
     inkscape:window-x="-4"
     inkscape:window-y="-4"
     inkscape:window-maximized="1"
     inkscape:current-layer="g10"
     units="px" />
  <defs
     id="defs4290" />
  <metadata
     id="metadata4293">
    <rdf:RDF>
      <cc:Work
         rdf:about="">
        <dc:format>image/svg+xml</dc:format>
        <dc:type
           rdf:resource="http://purl.org/dc/dcmitype/StillImage" />
        <dc:title />
      </cc:Work>
    </rdf:RDF>
  </metadata>
  <g
     inkscape:groupmode="layer"
     id="layer2"
     inkscape:label="Layer 2">
    <g
       id="g10">
      <g
         id="g3959">
        <path
           inkscape:connector-curvature="0"
           id="path4148"
           d="M 367.84111,768.89411 C 259.824,746.70863 154.79609,700.85624 71.921986,627.29102 43.027843,602.22876 26.56844,557.73155 49.092004,523.21568 c 19.380444,-28.67467 63.155806,-55.56584 95.234776,-30.15281 54.57898,35.67118 106.81646,76.60587 169.30596,98.01996 54.0539,19.17598 108.36766,42.90496 167.03559,40.08474 52.20623,2.08421 105.23901,-2.94513 153.43122,-24.49892 68.10636,-20.52849 132.23203,-53.285 187.67424,-97.96068 27.86912,-22.79995 69.20413,-37.83237 99.55487,-10.46542 23.23423,17.76503 43.34053,46.66584 39.20457,77.0719 -24.5598,43.53935 -69.30651,70.99636 -109.16974,99.35827 -129.85905,86.78206 -292.63433,118.99049 -446.7331,100.66336 -12.33765,-1.68679 -24.61723,-3.81131 -36.78928,-6.44197 z"
           style="fill:#000000" />
        <path
           inkscape:connector-curvature="0"
           id="path21"
           d="m 340.54604,456.43056 c -2.85651,-65.357 44.73124,-126.56419 108.32221,-141.26528 78.04039,-23.0727 177.69572,12.66412 203.05341,94.95039 8.39743,27.82985 18.5851,76.08392 -21.08399,83.5196 -44.52334,2.77889 -47.72819,-50.95997 -65.82037,-79.49692 -16.79026,-37.062 -64.77868,-55.62709 -100.75245,-34.24144 -33.39652,18.66655 -45.96881,57.22243 -56.02445,91.54442 -13.62688,33.21342 -68.19184,18.75981 -67.69436,-15.01077 z"
           style="fill:#000000;stroke:#000000;stroke-width:0.84398574px;stroke-linecap:butt;stroke-linejoin:miter;stroke-opacity:1" />
      </g>
    </g>
  </g>
  <g
     style="display:inline"
     id="layer3"
     transform="translate(0,-52.362161)" />
</svg>
